<?xml version="1.0" encoding="UTF-8" standalone="no"?>
<!DOCTYPE svg PUBLIC "-//W3C//DTD SVG 1.1//EN"
 "http://www.w3.org/Graphics/SVG/1.1/DTD/svg11.dtd">
<!-- Generated by graphviz version 2.38.0 (20140413.2041)
 -->
<!-- Title: G Pages: 1 -->
<svg width="289pt" height="186pt"
 viewBox="0.00 0.00 289.00 186.00" xmlns="http://www.w3.org/2000/svg" xmlns:xlink="http://www.w3.org/1999/xlink">
<g id="graph0" class="graph" transform="scale(1 1) rotate(0) translate(4 182)">
<title>G</title>
<polygon fill="white" stroke="none" points="-4,4 -4,-182 285,-182 285,4 -4,4"/>
<g id="clust1" class="cluster"><title>cluster_Global</title>
<path fill="none" stroke="gray" d="M20,-8C20,-8 261,-8 261,-8 267,-8 273,-14 273,-20 273,-20 273,-158 273,-158 273,-164 267,-170 261,-170 261,-170 20,-170 20,-170 14,-170 8,-164 8,-158 8,-158 8,-20 8,-20 8,-14 14,-8 20,-8"/>
<text text-anchor="middle" x="140.5" y="-157.2" font-family="Times,serif" font-size="11.00" fill="gray">Global</text>
</g>
<g id="clust2" class="cluster"><title>cluster_\Footprints</title>
<path fill="none" stroke="gray" d="M28,-16C28,-16 253,-16 253,-16 259,-16 265,-22 265,-28 265,-28 265,-130 265,-130 265,-136 259,-142 253,-142 253,-142 28,-142 28,-142 22,-142 16,-136 16,-130 16,-130 16,-28 16,-28 16,-22 22,-16 28,-16"/>
<text text-anchor="middle" x="140.5" y="-129.2" font-family="Times,serif" font-size="11.00" fill="gray">Footprints</text>
</g>
<!-- \\Footprints\\Ticket -->
<g id="node1" class="node"><title>\\Footprints\\Ticket</title>
<polygon fill="none" stroke="black" points="81,-114 24,-114 24,-78 81,-78 81,-114"/>
<text text-anchor="middle" x="52.5" y="-93.2" font-family="Courier,monospace" font-size="11.00">Ticket</text>
</g>
<!-- \\Footprints\\ChangeRequest -->
<g id="node2" class="node"><title>\\Footprints\\ChangeRequest</title>
<polygon fill="none" stroke="black" points="257,-114 153,-114 153,-78 257,-78 257,-114"/>
<text text-anchor="middle" x="205" y="-93.2" font-family="Courier,monospace" font-size="11.00">ChangeRequest</text>
</g>
<!-- \\Footprints\\ChangeRequest&#45;&gt;\\Footprints\\Ticket -->
<g id="edge1" class="edge"><title>\\Footprints\\ChangeRequest&#45;&gt;\\Footprints\\Ticket</title>
<path fill="none" stroke="black" d="M152.627,-96C132.46,-96 109.74,-96 91.1438,-96"/>
<polygon fill="none" stroke="black" points="91.0015,-92.5001 81.0014,-96 91.0014,-99.5001 91.0015,-92.5001"/>
</g>
<!-- \\Footprints\\API -->
<g id="node3" class="node"><title>\\Footprints\\API</title>
<polygon fill="none" stroke="black" points="232,-60 178,-60 178,-24 232,-24 232,-60"/>
<text text-anchor="middle" x="205" y="-39.2" font-family="Courier,monospace" font-size="11.00">API</text>
</g>
</g>
</svg>
