<?xml version="1.0" encoding="UTF-8" standalone="no"?>
<!DOCTYPE svg PUBLIC "-//W3C//DTD SVG 1.1//EN"
 "http://www.w3.org/Graphics/SVG/1.1/DTD/svg11.dtd">
<!-- Generated by graphviz version 2.38.0 (20140413.2041)
 -->
<!-- Title: G Pages: 1 -->
<svg width="305pt" height="222pt"
 viewBox="0.00 0.00 305.00 222.00" xmlns="http://www.w3.org/2000/svg" xmlns:xlink="http://www.w3.org/1999/xlink">
<g id="graph0" class="graph" transform="scale(1 1) rotate(0) translate(4 218)">
<title>G</title>
<polygon fill="white" stroke="none" points="-4,4 -4,-218 301,-218 301,4 -4,4"/>
<g id="clust1" class="cluster"><title>cluster_Global</title>
<path fill="none" stroke="gray" d="M20,-8C20,-8 277,-8 277,-8 283,-8 289,-14 289,-20 289,-20 289,-194 289,-194 289,-200 283,-206 277,-206 277,-206 20,-206 20,-206 14,-206 8,-200 8,-194 8,-194 8,-20 8,-20 8,-14 14,-8 20,-8"/>
<text text-anchor="middle" x="148.5" y="-193.2" font-family="Times,serif" font-size="11.00" fill="gray">Global</text>
</g>
<g id="clust2" class="cluster"><title>cluster_\unikent</title>
<path fill="none" stroke="gray" d="M28,-16C28,-16 269,-16 269,-16 275,-16 281,-22 281,-28 281,-28 281,-166 281,-166 281,-172 275,-178 269,-178 269,-178 28,-178 28,-178 22,-178 16,-172 16,-166 16,-166 16,-28 16,-28 16,-22 22,-16 28,-16"/>
<text text-anchor="middle" x="148.5" y="-165.2" font-family="Times,serif" font-size="11.00" fill="gray">unikent</text>
</g>
<g id="clust3" class="cluster"><title>cluster_\unikent\Footprints</title>
<path fill="none" stroke="gray" d="M36,-24C36,-24 261,-24 261,-24 267,-24 273,-30 273,-36 273,-36 273,-138 273,-138 273,-144 267,-150 261,-150 261,-150 36,-150 36,-150 30,-150 24,-144 24,-138 24,-138 24,-36 24,-36 24,-30 30,-24 36,-24"/>
<text text-anchor="middle" x="148.5" y="-137.2" font-family="Times,serif" font-size="11.00" fill="gray">Footprints</text>
</g>
<!-- \\unikent\\Footprints\\Ticket -->
<g id="node1" class="node"><title>\\unikent\\Footprints\\Ticket</title>
<polygon fill="none" stroke="black" points="89,-122 32,-122 32,-86 89,-86 89,-122"/>
<text text-anchor="middle" x="60.5" y="-101.2" font-family="Courier,monospace" font-size="11.00">Ticket</text>
</g>
<!-- \\unikent\\Footprints\\ChangeRequest -->
<g id="node2" class="node"><title>\\unikent\\Footprints\\ChangeRequest</title>
<polygon fill="none" stroke="black" points="265,-122 161,-122 161,-86 265,-86 265,-122"/>
<text text-anchor="middle" x="213" y="-101.2" font-family="Courier,monospace" font-size="11.00">ChangeRequest</text>
</g>
<!-- \\unikent\\Footprints\\ChangeRequest&#45;&gt;\\unikent\\Footprints\\Ticket -->
<g id="edge1" class="edge"><title>\\unikent\\Footprints\\ChangeRequest&#45;&gt;\\unikent\\Footprints\\Ticket</title>
<path fill="none" stroke="black" d="M160.627,-104C140.46,-104 117.74,-104 99.1438,-104"/>
<polygon fill="none" stroke="black" points="99.0015,-100.5 89.0014,-104 99.0014,-107.5 99.0015,-100.5"/>
</g>
<!-- \\unikent\\Footprints\\API -->
<g id="node3" class="node"><title>\\unikent\\Footprints\\API</title>
<polygon fill="none" stroke="black" points="240,-68 186,-68 186,-32 240,-32 240,-68"/>
<text text-anchor="middle" x="213" y="-47.2" font-family="Courier,monospace" font-size="11.00">API</text>
</g>
</g>
</svg>
